<svg version="1.2" xmlns="http://www.w3.org/2000/svg" viewBox="0 0 1069 283" width="1069" height="283"><style>.a{fill:#fff9a9}.b{fill:#fdeede}</style><path class="a" d="m127.7 183h-31.8v-29.1l-23.9 31.9-23.1-31.6v28.8h-31.8v-109.3l55.1 63.1 55.5-62.8zm80.7-35.3h-43.8v3.4h31.6v31.8h-63.6v-102.5h63.6v31.9h-31.6v3.4h43.8zm114.9 35.3h-31.8v-29.1l-23.9 31.9-23.1-31.6v28.8h-31.8v-109.3l55.1 63.1 55.5-62.9zm89.7-34.1q0 14.1-10.1 24.1-10 10-24.1 10h-51v-102.5h49.6q6.8 0 12.8 2.7 6 2.5 10.5 7 4.5 4.5 7 10.5 2.7 6 2.7 12.8 0 4.2-1 8.2-0.9 3.9-2.9 7.3 3 4.2 4.7 9.4 1.8 4.9 1.8 10.5zm-32 0q0-0.9-0.7-1.5-0.6-0.8-1.5-0.8h-8.7-7.2v-31.9h14.5q0.5 0 0.8-0.4 0.4-0.3 0.4-0.8 0-0.3-0.1-0.5 0-0.2-0.2-0.3-0.1-0.2-0.4-0.2-0.2-0.1-0.5-0.1h-17.7v38.8h19.1q0.9 0 1.5-0.6 0.7-0.7 0.7-1.7zm111.2-1.1h-43.8v3.4h31.6v31.8h-63.6v-102.5h63.6v31.9h-31.6v3.4h43.8zm123.1 30q-6.3 3.6-13 5.9-6.6 2.1-13.4 2.8-1.9 0.3-3.9 0.5-1.9 0-3.9 0-4.5 0-9-0.6-4.5-0.6-8.8-1.8l-0.2 0.2q-8.1-2.1-15.6-6.2-7.5-4.2-13.8-10.2h-0.3v14.7h-31.8v-102.8h50.6q18.1 0 31 12.9 12.9 12.9 12.9 31.2 0 9-3.4 17-3.3 7.8-9.2 13.8 4.1-0.3 8-1.5 4-1.2 7.8-3.3zm-51-53.4q0-5.1-3.6-8.5-3.6-3.6-8.6-3.6h-18.7v24.3h18.7q5 0 8.6-3.6 3.6-3.6 3.6-8.6zm134.1-32.8l-22.5 22.6q-1.5-1.7-3.5-2.5-1.9-0.9-4-1.2-0.3 0-0.8 0-0.3 0-0.6 0-2.4 0-4.8 0.8-2.4 1-4.2 2.9-1.8 1.8-2.7 4.1-0.9 2.2-0.9 4.7 0 2.5 0.9 4.9 0.9 2.3 2.7 4.1l5.6 5.6q4.2 4.2 6.1 9.4 2.1 5.1 2.1 10.5 0 5.5-2.1 10.7-2.1 5.1-6.1 9.3-4.2 4.2-9.5 6.1-5.1 2-10.5 2-0.4 0-0.9 0-0.3 0-0.7 0-5-0.3-9.8-2.2-4.8-2-8.7-5.9l17.6-17.4q-0.6-0.5-1.2-0.9-0.5-0.6-1.1-1.2-0.3-0.3-0.6-0.6-0.3-0.3-0.6-0.6-0.4-0.6-1-1.2-0.6-0.6-1.1-1.2-6.4-6.6-9.7-14.7-3.3-8.1-3.3-16.7 0-8.5 3.3-16.8 3.3-8.2 9.7-14.7 6.6-6.4 14.7-9.5 8.3-3.3 16.8-3.3 8.6 0 16.7 3.3 8.2 3.1 14.7 9.5z"/><path class="b" d="m814.2 107.7q0 7.4-1.8 16.2-1.5 8.8-4.8 17.6-3.4 8.8-8.2 17.2-4.7 8.2-11 14.6-6 6.5-13.7 10.4-7.4 3.7-16 3.7-6.4 0-11.1-3.3-4.7-3.6-8-8.8-3.1-5.3-4.7-11.4-1.6-6.2-1.6-11.7 0-6.4 1.8-12.7 5.5-17.9 17.6-32 12.1-14.1 29.5-21.1 0.4-0.2 0.9-0.2 1.4 0 2 1 0.8 1 0.8 2.1 0 1.4-1.6 2.4-2.7 1.5-5.5 3.1-2.7 1.4-5.4 3.5-10.8 7.8-18.4 19.3-7.6 11.6-11.5 24.3-1.4 4.1-1.4 9.1 0 4.1 1.2 8.8 1.2 4.7 3.5 8.8 2.4 3.9 5.9 6.7 3.7 2.5 8.6 2.5 3.1 0 5.8-1.2 3-1.1 5.5-2.9 7.4-5.3 13.3-13.7 5.8-8.4 9.9-17.9 4.1-9.8 6.3-19.8 2.1-10.1 2.1-19.1v-2.3q-0.4-5.1-3.5-8.6-2.9-3.6-7.4-5.7-1.4-0.6-2.7-1-1.2-0.4-2.4-1-1.9-0.7-1.9-2.7 0-1.4 0.7-2.3 0.8-1 2.2-0.8h0.2q4.3 0.4 8.4 1.9 4.3 1.6 7.6 4.3 3.3 2.8 5.5 6.5 2.3 3.7 2.9 8.4 0.4 1.9 0.4 3.9 0 1.7 0 3.9zm98.4 57.2q0 1.2-0.9 1.8-2.2 1.7-5.1 3.9-3 2.1-6.3 4.3-3.3 1.9-6.6 3.7-3.1 1.7-5.7 2.7-4.5 2-8.4 2-5.8 0-8.6-4.1-2.5-4.3-2.5-9.4 0-6.1 1.9-13.7 2-7.8 4.7-15.8 2.8-8 5.7-15.6 3.1-7.8 5.3-13.7 2.1-5.7 3.9-11.3 1.7-5.9 2.3-12.1-3.5 0.4-9.6 3.9-6 3.5-12.6 8.2-6.5 4.5-12.4 9-5.8 4.5-9.1 6.8l-7.1 14.1q-4.6 9.1-8.9 18.3-4.1 9-8.1 18.4-1.7 4.5-3.3 9-1.5 4.5-3.5 8.9-0.6 1.6-2.1 1.6-0.8 0-2.2-1-1.2-0.9-1.2-1.7 0-0.2 0.2-1.2 0.4-1.2 0.6-2.5 0.4-1.4 0.6-2.6 0.4-1.1 0.4-1.5 3.3-12.9 8-25.4 4.9-12.5 10.7-24.6 2.8-5.7 5.3-11.4 2.6-5.8 5.3-11.5 1.2-2.1 2.7-5.3 1.8-3.1 3.5-6.2 2-3.3 4-6.1 1.9-2.9 3.7-4.5 0.7-0.7 1.7-0.7 0.8 0 2.2 1.1 1.3 1 1.3 2 0 0.6-0.7 2.7-0.6 2.2-1.6 4.7-1 2.4-2 4.7-0.7 2.1-0.9 2.9 3.3-3.1 7.6-6.8 4.5-3.7 9.4-6.8 5-3.2 10.3-5.1 5.3-2.2 10-2.2 2.7 0 5 2.6 2.6 2.3 3 5 0.4 2 0.4 3 0 3.3-1.4 8.2-1.2 4.7-2.3 8-2 5.6-5.7 15-3.7 9.2-7.4 19-3.7 9.7-6.5 18.7-2.7 9-2.7 14.1 0 2.1 0.4 3.7 0.4 1.4 2.9 1.4 3.5 0 8.2-2.2 4.9-2.1 9.4-4.7 4.5-2.7 7.8-4.9 3.3-2.1 4.1-2.1 1.2 0 2 1.2 0.9 0.9 0.9 2.1zm62.5 0.4q0 1-0.7 1.8-3.2 2.9-7.7 6.6-4.5 3.7-9.5 6.8-4.9 3.2-10.2 5.3-5.1 2.2-9.4 2.2-6.2 0-9.7-3.2-3.5-3.1-5.5-7.6-1.8-4.7-2.3-9.9-0.4-5.5-0.4-10.2 0-10.9 2.1-21.5 2.2-10.5 4.7-21.1 4.9-20.5 11.7-40 7-19.5 17.6-37.9 1.9-3.5 3.9-7 2.2-3.6 4.5-6.7 0.8-1.2 2.1-1.2 1.2 0 2.2 0.8 1.2 0.8 1.2 2.2 0 0.6-0.2 1-8.8 22.6-18.2 45.1-9.4 22.4-15.2 46.1-2.8 10.5-5.1 21.5-2.2 10.7-2.2 21.8 0 3 0 6.5 0.2 3.3 1 6.2 1 3 2.9 5.1 2.2 2 6.1 2 4.3 0 9.6-2.8 5.4-2.7 10.3-6 5.1-3.6 8.8-6.3 3.7-2.7 4.5-2.7 1.2 0 2.2 1 0.9 0.9 0.9 2.1zm86.6-79.1q0 0.8-0.2 1.2-7.5 19.9-15.9 39-8.4 19-15.8 38.9-3.7 9.6-6.6 19.1-2.8 9.6-5.5 19.6-0.6 2.1-1.4 4.1-0.5 1.7-1.3 3.9-2.4 7.2-4.9 14.2-2.5 6.9-5.9 13.5-3.3 6.7-7.6 12.7-4.3 5.9-9.7 10.4-5.5 4.3-12 7-6.4 2.5-14 2.5-8 0-15.1-2.7-6.8-2.9-12.7-7.6-5.8-4.9-10.5-11.3-4.5-6.7-8-14.3-0.4-0.8-0.4-1.4-0.2-1.5 0.8-2.1 1.1-0.8 2.3-0.8 0.8 0 1.4 0.6 0.6 0.6 1 1.2 1.3 2.1 2.3 4.6 1.2 2.4 2.7 4.5 3 4.1 6.7 8 3.9 3.8 8.4 6.7 4.7 2.7 9.7 4.5 5.1 1.5 10.4 1.5 8 0 14.8-3.9 9.8-5.8 16.3-16.2 6.4-10.3 11.1-22.8 4.5-12.1 7.6-24.6 3.3-12.7 6.6-23.7-2.3 2.2-5.6 4.7-3.3 2.6-6.9 4.9-3.5 2.1-7.2 3.7-3.5 1.6-6.4 1.6-5.7 0-10.4-3.7-4.5-3.7-5.6-10-1-3.9-1.2-7.2-0.4-6.1 0.4-12.7 1-6.9 2.5-13.5 1.8-6.8 3.9-13.1 2.2-6.4 4.5-11.7 4.9-11.3 10.6-22.3 1.1-2.1 2.1-4.5 1-2.3 2.4-4.5 0.7-1.1 2.3-1.1 1 0 2.1 1.1 1.2 1 1.4 2.2l-0.6 2.9q-1.7 8.2-4.7 16-2.7 7.9-5.8 15.3-2.2 5.3-4.5 11.1-2.2 5.7-3.9 11.5-1.6 5.9-2.6 11.9-0.9 5.9-0.5 11.8 0.1 1.7 0.3 3.7 0.4 1.9 1.2 3.7 0.8 1.6 2 2.7 1.1 1 3.1 1 3.3 0 7.8-2.1 4.5-2.4 9-5.3 4.5-3.1 8.4-6.5 4.1-3.3 6.6-5.6 5.1-14.1 11-27.4 5.8-13.5 12.7-26.3 2.7-5.1 5.4-10.4 2.8-5.5 5.9-10.3 0.8-1.4 2.3-1.4 1.4 0 2.2 1.2 1 0.9 1.2 2.3z"/></svg>